PathFileType	4	(X/Y/Z)	C:\Users\Basilio\Documents\Thesis Gigler\squatting_fais\c3dfiles\047\SJ_pre3\markers_experimental.trc
DataRate	CameraRate	NumFrames	NumMarkers	Units	OrigDataRate	OrigDataStartFrame	OrigNumFrames
200.000000	200.000000	4	60	mm	200.000000	857	1714
Frame#	Time	FHD			LBHD			RBHD			C7			T10			CLAV			LSHO			LUUPA			LMUPA			LDUPA			LLEP			LMEP			LRAD			LUL			LRFIN			RSHO			RUPA1			RMUPA			RDUPA			RLEP			RMEP			RRAD			RUL			RUFIN			LASI			RASI			USACR			LSACR			RSACR			LTHI1			LTHI2			LTHI3			LTHI4			LLFC			LMFC			LTIB1			LTIB2			LTIB3			LTIB4			LLMAL			LMMAL			LMT1			LMT2			LMT5			RTHI			RTHI2			RTHI3			RTHI4			RLFC			RMFC			RTIB1			RTIB2			RTIB3			RTIB4			RLMAL			RMMAL			RHEE			RMT1			RMT2			RMT5			
		X1	Y1	Z1	X2	Y2	Z2	X3	Y3	Z3	X4	Y4	Z4	X5	Y5	Z5	X6	Y6	Z6	X7	Y7	Z7	X8	Y8	Z8	X9	Y9	Z9	X10	Y10	Z10	X11	Y11	Z11	X12	Y12	Z12	X13	Y13	Z13	X14	Y14	Z14	X15	Y15	Z15	X16	Y16	Z16	X17	Y17	Z17	X18	Y18	Z18	X19	Y19	Z19	X20	Y20	Z20	X21	Y21	Z21	X22	Y22	Z22	X23	Y23	Z23	X24	Y24	Z24	X25	Y25	Z25	X26	Y26	Z26	X27	Y27	Z27	X28	Y28	Z28	X29	Y29	Z29	X30	Y30	Z30	X31	Y31	Z31	X32	Y32	Z32	X33	Y33	Z33	X34	Y34	Z34	X35	Y35	Z35	X36	Y36	Z36	X37	Y37	Z37	X38	Y38	Z38	X39	Y39	Z39	X40	Y40	Z40	X41	Y41	Z41	X42	Y42	Z42	X43	Y43	Z43	X44	Y44	Z44	X45	Y45	Z45	X46	Y46	Z46	X47	Y47	Z47	X48	Y48	Z48	X49	Y49	Z49	X50	Y50	Z50	X51	Y51	Z51	X52	Y52	Z52	X53	Y53	Z53	X54	Y54	Z54	X55	Y55	Z55	X56	Y56	Z56	X57	Y57	Z57	X58	Y58	Z58	X59	Y59	Z59	X60	Y60	Z60	

858	4.285	220.1661376953126	1058.946533203125	-869.978454589844	69.01348876953126	1122.545532226563	-951.9878540039065	50.17504882812501	1132.5576171875	-804.3496704101565	-72.02709960937501	1030.455444335938	-883.0606079101565	-326.8275146484376	846.6790161132815	-887.556335449219	0.4156121909618379	875.8454589843752	-882.3282470703127	-30.598295211792	950.228698730469	-1053.909912109375	-177.1421051025391	976.897399902344	-1170.616455078125	-175.6188659667969	933.021423339844	-1196.743774414063	-225.5657196044922	957.6848754882815	-1218.8525390625	-271.8941650390626	913.6184692382815	-1261.603637695313	-331.4681091308594	933.472839355469	-1184.693237304688	-330.1398620605469	729.6311645507814	-1091.81005859375	-321.8575439453126	680.0977172851564	-1150.785888671875	-286.5759277343751	688.6339111328126	-1055.074096679688	-32.57494354248048	961.5108032226565	-722.0651245117189	-190.8936462402344	986.400085449219	-600.9050903320314	-193.5224304199219	942.8732910156252	-577.1893920898439	-243.9693908691407	968.5942993164065	-556.9258422851564	-293.4790954589844	921.884704589844	-520.7307128906251	-353.7741088867188	941.5330200195315	-589.5747680664064	-306.6699829101563	732.0505371093751	-687.1853637695314	-308.8157348632813	686.2930297851564	-625.3123779296876	-280.4867248535157	675.8997802734376	-725.1204223632814	-375.0081787109376	587.9583129882814	-1002.969604492188	-368.9559631347657	587.8253784179689	-775.5975341796877	-455.2324829101564	763.8267211914064	-893.1491699218752	-482.437957763672	748.0814208984376	-921.6914062500002	-484.3675231933595	746.8663940429689	-863.8981933593752	-442.4089660644532	583.8040161132814	-1111.350952148438	-362.5974731445313	579.5144042968751	-1133.779296875	-334.1605224609376	612.1025390625001	-1110.711669921875	-334.8547363281251	533.4266357421876	-1160.821655273438	-203.3568115234376	435.6070556640626	-1196.733154296875	-142.0932006835938	425.022674560547	-1082.271728515625	-202.8101043701172	267.2998962402344	-1103.868774414063	-247.2983093261719	229.8817596435547	-1170.013916015625	-224.3699188232422	222.231918334961	-1130.523559570313	-269.4436035156251	162.2366790771485	-1092.173583984375	-362.5687561035157	93.88103485107423	-1127.299072265625	-325.4690246582032	105.512191772461	-1044.096801757813	-210.7266235351563	64.06778717041017	-1094.831176757813	-221.7079772949219	61.14391708374025	-1137.017333984375	-270.7303466796876	43.29167556762696	-1175.038818359375	-422.566864013672	553.2514648437501	-650.2990722656251	-359.3405151367188	555.2263183593751	-630.5209960937501	-339.4537048339844	580.6212158203126	-637.3944091796876	-311.1846008300782	490.4833374023439	-609.1891479492189	-187.2044525146485	419.7299804687501	-596.3148803710939	-131.3207702636719	426.677459716797	-717.7116699218751	-170.0256958007813	297.3932495117188	-628.6599121093751	-271.3315734863282	251.5589141845704	-616.1536865234376	-230.2736206054688	234.3330535888672	-627.5806274414064	-238.4762725830079	194.7401428222657	-671.3022460937501	-364.4267272949219	89.68426513671876	-681.6347045898439	-318.3918151855469	105.4420700073242	-762.4051513671876	-417.6250610351564	54.04852294921876	-748.3406372070314	-206.7250976562501	54.64850997924806	-715.8240966796876	-216.7540130615235	57.21014785766603	-671.3406982421876	-273.7856445312501	30.09648895263673	-624.8477172851564	
859	4.29	220.0613403320313	1058.932495117188	-869.9549560546877	69.03743743896486	1122.564697265625	-951.9122314453127	50.0611915588379	1132.446166992188	-804.3284301757815	-72.09029388427736	1030.414306640625	-883.1199340820315	-326.8218994140626	846.6104125976565	-887.5607910156252	0.4291321635246278	875.8240966796877	-882.3872070312502	-30.68321609497071	950.2093505859377	-1053.90869140625	-177.3249816894532	976.8325805664065	-1170.649047851563	-175.688232421875	933.0559692382815	-1196.770874023438	-225.7391662597657	957.6761474609377	-1218.853637695313	-271.9747009277344	913.5718994140627	-1261.612426757813	-331.5826416015626	933.4136352539065	-1184.673095703125	-330.1938171386719	729.4895629882814	-1091.864624023438	-321.9267578125001	680.0177001953126	-1150.810180664063	-286.6141967773438	688.5717163085939	-1055.139404296875	-32.56418609619141	961.4526367187502	-722.0799560546876	-190.8981170654297	986.2991943359377	-600.9182739257814	-193.5509033203126	942.7400512695315	-577.1997680664064	-243.9556121826172	968.5302734375002	-556.9006347656251	-293.3049011230469	921.793640136719	-520.7252197265626	-353.8007812500001	941.4890136718752	-589.4947509765626	-306.7563171386719	731.9172363281251	-687.0853271484376	-308.7437744140626	686.2152099609376	-625.3582763671876	-280.5177917480469	675.8146362304689	-725.0269775390626	-374.9140625000001	588.0346069335939	-1003.039428710938	-368.8215942382813	587.8353271484376	-775.691101074219	-455.294158935547	763.7717895507814	-893.1247558593752	-482.4698486328126	748.0167236328126	-921.6817626953127	-484.366180419922	746.8031005859376	-863.9495849609377	-442.4186401367189	583.6900634765626	-1111.294311523438	-362.5897827148438	579.4801635742189	-1133.773315429688	-334.1876831054688	612.0451660156251	-1110.663818359375	-334.8824157714844	533.4031982421876	-1160.81396484375	-203.4348907470704	435.5528869628907	-1196.6845703125	-142.0936889648438	424.9934692382814	-1082.30126953125	-202.7971649169922	267.3150329589844	-1103.83984375	-247.7617187500001	229.9552612304688	-1170.12451171875	-224.3099060058594	222.2344207763672	-1130.543212890625	-269.3810119628907	162.2782592773438	-1092.142822265625	-362.5210571289063	93.87019348144533	-1127.342041015625	-325.4871215820313	105.5299987792969	-1044.099365234375	-210.7251281738282	64.12104797363283	-1094.843383789063	-221.4024505615235	61.59397506713869	-1137.2939453125	-270.7862548828126	43.27661132812501	-1175.07470703125	-422.6042785644532	553.2402954101564	-650.2829589843751	-359.3477172851563	555.1688232421876	-630.5034179687501	-339.4013977050782	580.6000976562501	-637.4551391601564	-311.0818176269532	490.4561157226564	-609.1235961914064	-187.1820831298828	419.7278442382814	-596.2590332031251	-131.21484375	426.708221435547	-717.7358398437501	-170.0271759033203	297.3807373046876	-628.5760498046876	-271.3451538085938	251.5194549560547	-616.1168212890626	-230.2364349365235	234.3334960937501	-627.5695800781251	-238.5046844482422	194.7376708984376	-671.2840576171876	-364.4519958496094	89.63360595703126	-681.3334350585939	-318.3728637695313	105.4033737182617	-762.4661254882814	-417.5956420898439	54.0699806213379	-748.3673706054689	-206.7241363525391	54.65187454223634	-715.7918090820314	-216.6046447753907	57.11241531372072	-671.3672485351564	-273.7705078125001	30.14372825622559	-624.8720092773439	
860	4.295	219.9337615966797	1058.882202148438	-869.852722167969	68.86213684082033	1122.588256835938	-951.877136230469	50.00943756103517	1132.417846679688	-804.3958129882815	-72.16959381103517	1030.4345703125	-883.1157836914065	-326.9225463867188	846.6147460937502	-887.5185546875002	0.3179396092891694	875.812438964844	-882.410339355469	-30.81189155578614	950.1799926757815	-1053.966064453125	-177.3789672851563	976.883728027344	-1170.701049804688	-175.6922149658203	932.9951171875002	-1196.919677734375	-225.9052124023438	957.5344848632815	-1218.85986328125	-272.1164855957032	913.5137329101565	-1261.638061523438	-331.7218627929688	933.3027954101565	-1184.7138671875	-330.2286071777344	729.4486694335939	-1091.855590820313	-321.9234313964844	679.9399414062501	-1150.83544921875	-286.5622253417969	688.1887207031251	-1055.194702148438	-32.62997055053712	961.3897094726565	-722.0252075195314	-190.8884429931641	986.2919921875002	-600.8807373046876	-193.5351867675782	942.6579589843752	-577.0733032226564	-243.8802490234376	968.4160766601565	-556.8922729492189	-293.2774047851563	921.7475585937502	-520.7122192382814	-353.7781372070313	941.363220214844	-589.4493408203126	-306.7387084960938	731.8640747070314	-687.0504760742189	-308.7503051757813	686.1633300781251	-625.2791137695314	-280.4409484863282	675.9199829101564	-725.1730957031251	-374.7558593750001	588.2732543945314	-1003.43359375	-368.4435729980469	587.6994018554689	-776.1146240234377	-455.342498779297	763.6630249023439	-893.1524047851565	-482.4692993164064	747.9355468750001	-921.6981201171877	-484.3174743652345	746.6242065429689	-863.9819946289065	-442.5101623535157	583.6377563476564	-1111.30712890625	-362.6966247558594	579.4705200195314	-1133.739990234375	-334.2635498046876	612.0437011718751	-1110.608154296875	-334.8824157714844	533.3575439453126	-1160.798828125	-203.4368896484376	435.5934143066407	-1196.67919921875	-142.0883483886719	425.001434326172	-1082.278442382813	-202.7983398437501	267.3079223632813	-1103.840942382813	-247.3569946289063	229.9304199218751	-1169.94580078125	-224.1089630126954	222.5277709960938	-1130.666748046875	-269.3451232910157	162.3291473388672	-1092.269775390625	-362.5676879882813	93.90943145751955	-1127.338500976563	-325.4874572753907	105.5055236816407	-1044.133911132813	-210.7257690429688	64.09193420410158	-1094.850830078125	-221.6746826171876	61.30733489990236	-1137.085815429688	-270.8234252929688	43.31031799316407	-1175.059814453125	-422.652313232422	553.1520996093751	-650.2274169921876	-359.4106750488282	555.0516357421876	-630.5335083007814	-339.3911437988282	580.5908813476564	-637.4447021484376	-311.0589294433594	490.333709716797	-609.2854614257814	-187.2485961914063	419.6853027343751	-596.2252807617189	-131.2608642578125	426.7003784179689	-717.6762695312501	-169.9857788085938	297.4185485839844	-628.6774291992189	-271.3337707519532	251.5379791259766	-616.1640014648439	-230.3092346191407	234.3284606933594	-627.5299682617189	-238.4464569091797	194.7235412597657	-671.3320312500001	-364.4346618652344	89.68206787109376	-681.7206420898439	-319.6818237304688	105.56640625	-761.8301391601564	-417.6009521484376	54.08857727050783	-748.3766479492189	-206.7219238281251	54.65843200683595	-715.8062744140626	-216.8452453613282	57.16522598266603	-671.2949829101564	-273.8117065429688	30.10194396972657	-624.8356933593751	
861	4.3	219.8155517578126	1058.7294921875	-869.7017211914065	68.8792190551758	1122.591064453125	-951.8249511718752	49.90274047851564	1132.3701171875	-804.3779296875002	-72.28366088867189	1030.446899414063	-883.0671997070315	-326.8936767578126	846.4879150390627	-887.5352172851565	0.2942342758178711	875.759460449219	-882.5421142578127	-30.90291976928712	950.1706542968752	-1054.040893554688	-177.5141906738282	976.7928466796877	-1170.760620117188	-175.760238647461	932.9815673828127	-1196.95166015625	-226.0161437988282	957.4907836914065	-1218.89892578125	-272.2660827636719	913.4547119140627	-1261.645874023438	-331.8345642089844	933.1683349609377	-1184.74609375	-330.2772827148438	729.3537597656251	-1091.885009765625	-321.9172363281251	679.8330688476564	-1150.888671875	-286.6853942871094	688.3884887695314	-1055.143188476563	-32.65219116210938	961.421081542969	-722.3005981445314	-190.8696594238282	986.181823730469	-600.8793334960939	-193.4688262939454	942.5819091796877	-577.2307128906251	-243.8634338378907	968.3470458984377	-556.8843994140626	-293.1811828613282	921.6936035156252	-520.7667846679689	-353.6568908691407	941.291931152344	-589.3713378906251	-306.6140136718751	731.9231567382814	-687.0635375976564	-308.7721862792969	686.1358642578126	-625.2463378906251	-280.5349121093751	675.8050537109376	-725.2556152343751	-375.0484619140626	588.2303466796876	-1003.753234863281	-368.4684448242188	587.3922119140626	-776.4653320312502	-455.4324951171876	763.5031738281251	-893.161560058594	-482.494598388672	747.8905639648439	-921.7134399414065	-484.2614135742189	746.5321655273439	-864.0203857421877	-442.5116577148439	583.5925903320314	-1111.302490234375	-362.7044067382813	579.4237060546876	-1133.764282226563	-334.3236389160157	611.9009399414064	-1110.576416015625	-334.8532714843751	533.3085327148439	-1160.787231445313	-203.3771514892579	435.6072692871095	-1196.679321289063	-142.0820770263672	424.9928283691407	-1082.265014648438	-202.8000640869141	267.3060607910157	-1103.833862304688	-247.3537902832032	229.9471893310547	-1169.919189453125	-224.109115600586	222.3634948730469	-1130.717407226563	-269.3823242187501	162.2462921142578	-1092.2548828125	-362.6391906738282	93.94121551513673	-1127.332641601563	-325.4756164550782	105.5475540161133	-1044.124145507813	-210.7165069580079	64.09883880615236	-1094.87109375	-221.5972442626954	61.4213218688965	-1137.179077148438	-270.7985229492188	43.31375885009766	-1175.051025390625	-422.5876464843751	553.1463623046876	-650.4226684570314	-359.4098815917969	555.0073852539064	-630.5324096679689	-339.3974304199219	580.5316162109376	-637.4829101562501	-310.9850158691407	490.2984924316407	-609.1314697265626	-187.1903228759766	419.7265014648439	-596.2200927734376	-131.3235778808594	426.6093139648439	-717.6951904296876	-170.0486297607422	297.3424377441407	-628.5455322265626	-271.3210144042969	251.5285949707032	-616.1099243164064	-230.2715454101563	234.3309173583985	-627.4819946289064	-238.4788055419922	194.7176361083985	-671.2858276367189	-364.5211486816407	89.6223831176758	-681.6600341796876	-318.2220458984376	105.3920669555664	-762.5627441406251	-417.6161499023439	54.07284164428712	-748.3463745117189	-206.7398376464844	54.69336700439455	-715.8013305664064	-216.8327331542969	57.19453048706056	-671.2629394531251	-273.7547302246094	30.11913299560548	-624.8726806640626	
